<?xml version="1.0" standalone="no"?>
<!DOCTYPE svg PUBLIC "-//W3C//DTD SVG 20010904//EN"
 "http://www.w3.org/TR/2001/REC-SVG-20010904/DTD/svg10.dtd">
<svg version="1.0" xmlns="http://www.w3.org/2000/svg"
 width="190.000000pt" height="114.000000pt" viewBox="0 0 190.000000 114.000000"
 preserveAspectRatio="xMidYMid meet">

<g transform="translate(0.000000,114.000000) scale(0.100000,-0.100000)"
fill="#000000" stroke="none">
<path d="M536 617 c-11 -8 -17 -23 -14 -38 2 -20 10 -25 43 -29 31 -4 41 -10
43 -27 4 -25 -26 -38 -66 -28 -20 5 -24 4 -16 -5 6 -6 28 -10 49 -8 73 6 74
70 1 76 -44 4 -59 28 -30 49 12 8 29 11 48 7 19 -4 26 -3 22 5 -10 15 -58 14
-80 -2z"/>
<path d="M793 555 c0 -44 2 -61 4 -37 2 23 2 59 0 80 -2 20 -4 1 -4 -43z"/>
<path d="M950 620 c0 -5 11 -10 25 -10 23 0 24 -3 28 -67 l3 -68 2 68 c2 64 3
67 27 67 14 0 25 5 25 10 0 6 -25 10 -55 10 -30 0 -55 -4 -55 -10z"/>
<path d="M1290 555 c0 -80 17 -104 22 -32 3 37 6 42 28 42 22 0 26 -5 31 -45
l6 -45 1 51 c2 55 -11 71 -49 59 -15 -5 -19 -1 -19 19 0 14 -4 26 -10 26 -6 0
-10 -32 -10 -75z"/>
<path d="M670 570 c-11 -11 -20 -26 -20 -33 0 -24 31 -57 55 -57 24 0 55 33
55 57 0 18 -37 53 -55 53 -8 0 -24 -9 -35 -20z m65 -34 c0 -36 -26 -56 -49
-37 -16 14 -22 52 -9 65 4 4 19 6 33 4 20 -2 25 -8 25 -32z"/>
<path d="M844 540 l1 -55 43 0 42 -1 0 54 c0 33 -4 51 -10 47 -5 -3 -10 -23
-10 -45 0 -26 -5 -40 -16 -44 -25 -10 -43 11 -47 57 -3 31 -4 27 -3 -13z"/>
<path d="M1076 574 c-9 -8 -16 -28 -16 -44 0 -33 23 -50 67 -49 30 1 26 3 -19
13 -42 9 -36 36 7 36 27 0 35 4 35 18 0 39 -45 55 -74 26z m54 -19 c0 -9 -9
-15 -25 -15 -16 0 -25 6 -25 15 0 9 9 15 25 15 16 0 25 -6 25 -15z"/>
<path d="M1210 583 c-54 -21 -31 -105 28 -102 23 2 23 2 5 6 -51 10 -60 76
-10 81 15 2 27 8 27 13 0 10 -26 11 -50 2z"/>
<path d="M680 258 c47 -45 124 -119 172 -166 l87 -85 166 164 c119 117 162
165 149 167 -11 3 -66 -46 -163 -142 -80 -80 -151 -146 -156 -146 -6 0 -75 65
-155 145 -92 92 -152 145 -165 145 -15 0 2 -21 65 -82z"/>
</g>
</svg>
